# xmcd CD database file
#
# Track frame offsets:
#	150
#	18117
#	33586
#	50875
#	69501
#	88690
#	106430
#	123804
#	140348
#	157824
#	174383
#	195303
#	215151
#	241488
#
# Disc length: 3494 seconds
#
# Revision: 0
# Processed by: cddbd v1.4PL0 Copyright (c) Steve Scherf et al.
# Submitted via: CDex 1.50Beta7
#
DISCID=bc0da40e
DTITLE=Maía - Baile de los sueños
DYEAR=2003
DGENRE=Salsa
TTITLE0=Niña bonita
TTITLE1=Al oído
TTITLE2=Candela
TTITLE3=No sé decirlo
TTITLE4=No espero nada de ti
TTITLE5=Perfecta ola
TTITLE6=Quédate
TTITLE7=Se me acabó el amor
TTITLE8=Sin tí ya no
TTITLE9=Yo te pido
TTITLE10=Ve a volar
TTITLE11=Baile de los sueños
TTITLE12=No sé decirlo (Bossa Nova)
TTITLE13=Niña bonita (Video)
EXTD=YEAR: 2003
EXTT0=
EXTT1=
EXTT2=
EXTT3=
EXTT4=
EXTT5=
EXTT6=
EXTT7=
EXTT8=
EXTT9=
EXTT10=
EXTT11=
EXTT12=
EXTT13=
PLAYORDER=
